<?xml version="1.0" encoding="UTF-8"?>
<!DOCTYPE svg PUBLIC "-//W3C//DTD SVG 1.1//EN" "http://www.w3.org/2000/svg">
<?xml-stylesheet href="Лого IK.css" type="text/css"?>
<svg xmlns="http://www.w3.org/2000/svg" xml:space="preserve" width="84.6666mm" height="84.6666mm" version="1.1" style="shape-rendering:geometricPrecision; text-rendering:geometricPrecision; image-rendering:optimizeQuality; fill-rule:evenodd; clip-rule:evenodd"
viewBox="0 0 8466.66 8466.66">
 <g>
  <path d="M3795.33 85.89c905.91,49.39 1296.46,494.97 1290.82,1029.12 -8.32,855.46 198.37,669.44 1365.45,730.64 330.43,17.45 1141.32,70.6 1421.55,549.19 102,174.47 81.07,875.31 -230.84,1190.44 -551.33,556.43 -1297.54,959.87 -827.8,1705.54 696.01,1104.81 413.36,423.29 1178.09,1575.89 102,154.07 252.05,444.77 294.19,682.86 51.54,292.3 -119.72,526.1 -322.91,640.44 -741.11,417.13 -3132.46,121.33 -4303.3,125.63 -1360.89,5.36 -2445.57,244.53 -2937.58,-84.56 -729.3,-488.25 -544.36,-1837.33 -494.97,-3880.81 82.67,-3392.82 -909.14,-4510.25 3567.3,-4264.38zm-2643.67 1768.62l0 -946.98 833.44 0 0 946.98 -833.44 0zm0 5833.02l0 -4914.49 833.44 0 0 4914.49 -833.44 0zm2107.09 0l0 -6780 833.45 0 0 3861.75 1969.12 -1996.24 1076.63 0 -1874.64 1825.79 2064.15 3088.7 -1025.9 0 -1631.99 -2511.33 -577.37 562.34 0 1948.99 -833.45 0z"/>
 </g>
</svg>
